SplineFontDB: 3.2
FontName: EmaNovosel
FullName: EmaNovosel
FamilyName: EmaNovosel
Weight: Regular
Copyright: Copyright (c) 2023, Korisnik
UComments: "2023-3-19: Created with FontForge (http://fontforge.org)"
Version: 001.000
ItalicAngle: 0
UnderlinePosition: -100
UnderlineWidth: 50
Ascent: 800
Descent: 200
InvalidEm: 0
LayerCount: 2
Layer: 0 0 "Stra+AX4A-nji" 1
Layer: 1 0 "Prednji" 0
XUID: [1021 645 -1765595102 32520]
OS2Version: 0
OS2_WeightWidthSlopeOnly: 0
OS2_UseTypoMetrics: 1
CreationTime: 1679260232
ModificationTime: 1679273213
OS2TypoAscent: 0
OS2TypoAOffset: 1
OS2TypoDescent: 0
OS2TypoDOffset: 1
OS2TypoLinegap: 0
OS2WinAscent: 0
OS2WinAOffset: 1
OS2WinDescent: 0
OS2WinDOffset: 1
HheadAscent: 0
HheadAOffset: 1
HheadDescent: 0
HheadDOffset: 1
OS2Vendor: 'PfEd'
MarkAttachClasses: 1
DEI: 91125
Encoding: iso8859-2
UnicodeInterp: none
NameList: AGL For New Fonts
DisplaySize: -48
AntiAlias: 1
FitToEm: 0
WinInfo: 0 38 14
BeginPrivate: 0
EndPrivate
BeginChars: 256 23

StartChar: A
Encoding: 65 65 0
Width: 648
Flags: W
LayerCount: 2
Fore
SplineSet
250 416 m 25
 280 280 l 25
 430 286 l 25
 458 428 l 25
 368 528 l 25
 250 416 l 25
52 16 m 1
 86.65625 237.184570312 126.807617188 454.793945312 226 634 c 1
 316 736 388 734 470 646 c 1
 475.575195312 638.533203125 634.842773438 23.4345703125 632 28 c 0
 630.9140625 29.7451171875 465.046875 21.5732421875 454 22 c 0
 452.001953125 22.0771484375 412 186 412 186 c 1
 373.189453125 152.39453125 331.424804688 138.5625 282 176 c 1
 240 22 l 1
 52 16 l 1
EndSplineSet
Validated: 524321
EndChar

StartChar: j
Encoding: 106 106 1
Width: 472
Flags: W
HStem: 314 60<265 301>
VStem: 325 76<-81.9377 65.9493 66 206>
LayerCount: 2
Fore
SplineSet
271 568 m 25
 237 556 l 25
 223 494 l 25
 231 450 l 25
 277 428 l 25
 321 430 l 25
 369 482 l 25
 363 536 l 25
 331 562 l 25
 271 568 l 25
239 374 m 25
 371 378 l 17
 376.653901558 384.131482423 418.630537204 43.1197755851 401 22 c 0
 399.718313507 20.464656477 403 -130 403 -130 c 25
 357 -196 l 25
 291 -192 l 25
 199 -150 l 25
 163 -94 l 17
 170.6796875 -72.951171875 168.9921875 -60.2294921875 187 -30 c 9
 229 -30 l 25
 247 -84 l 25
 291 -104 l 25
 325 -82 l 25
 325 -82 325 4 325 0 c 8
 325 -4 319 66 319 66 c 25
 319 146 l 25
 311 266 l 25
 301 310 l 25
 265 314 l 25
 239 374 l 25
EndSplineSet
Validated: 524325
EndChar

StartChar: E
Encoding: 69 69 2
Width: 460
Flags: W
HStem: 392 20G<215.978 233.785>
VStem: 122 16<484.82 492.285>
LayerCount: 2
Fore
SplineSet
143 375 m 1
 198.375 386.997070312 208.956054688 399.518554688 223 412 c 1
 244.570542898 383.785311919 300.30859375 395.395507812 341 391 c 1
 329.834960938 382.609375 304.095703125 392.045898438 309 364 c 1
 264.298858753 383.696938467 233.735336014 387.629112999 201 357 c 1
 188.3828125 377.767578125 165.176378251 372.212627293 143 375 c 1
66 570 m 1
 116.296494329 586.944711853 117.576540794 492.285410553 122 419 c 1
 124.143554688 482.051757812 146.80859375 512.201171875 138 588 c 1
 109.0417276 638.362173383 127.672851562 656.801757812 217 638 c 1
 207 665 301.706054688 660.424804688 346 631 c 1
 403.513091156 682.259423594 428 654 435 667 c 1
 366 677 369 659 343 695 c 1
 323.774414062 665.6796875 285.856445312 689.766601562 246 699 c 1
 199.598632812 667.110351562 104 668 134 713 c 1
 114.324989433 707.979686245 101.104408301 697.640697687 30 735 c 1
 60.5600874 689.558135537 54.5522071323 658.463991166 24 637 c 1
 51.4658420291 637.927612288 70.156650721 611.319292445 66 570 c 1
27 0 m 1
 76.46484375 43.5908203125 246.9765625 -10.4228515625 230 0 c 0
 190.427734375 24.2958984375 432.638671875 37.1689453125 450 25 c 1
 423.010742188 33.861328125 328.34765625 40.1328125 334 65 c 1
 277.109375 60.931640625 208.572265625 -2.7255859375 142 63 c 1
 91.1533203125 126.951171875 107.518687179 280.536884909 119 376 c 1
 82.1806640625 403.64453125 60.3779296875 471.248046875 36 532 c 1
 41.7783203125 469.920898438 101 367 58 293 c 1
 59.9512381794 245.126645393 48.1201123758 226.624338569 34 213 c 1
 118.27734375 202.115234375 45 53 27 0 c 1
EndSplineSet
Validated: 524325
EndChar

StartChar: m
Encoding: 109 109 3
Width: 390
Flags: W
LayerCount: 2
Fore
SplineSet
196 287 m 1
 206.461914062 224.995117188 215.19140625 166.572265625 194 170 c 1
 243.70703125 131.642578125 228.258789062 77.98046875 237 30 c 1
 242.59375 69.6376953125 236.991210938 104.796875 254 149 c 1
 226 192 211.526367188 235.624023438 251 292 c 1
 301.977539062 322.581054688 312 217 313 178 c 1
 332.323242188 129 310.799804688 80 309 31 c 1
 326.548828125 94.880859375 336.243164062 178.776367188 367 209 c 1
 333.279296875 220.352539062 306.16015625 257.7421875 296 362 c 1
 281.05859375 341.469726562 258.240234375 334.057617188 222 349 c 1
 225.333007812 327 216.666015625 306.333007812 196 287 c 1
23.203125 314.6328125 m 5
 75.580078125 318.020507812 69.01953125 238.890625 53.9580078125 189.64453125 c 5
 85.34765625 95.498046875 10.9013671875 -3.0244140625 10.365234375 2.1640625 c 4
 9.720703125 8.4169921875 105.862304688 100.086914062 94.5146484375 149.876953125 c 5
 58.974609375 178.6171875 87.2216796875 220.12890625 95.4580078125 265.935546875 c 5
 83.5498046875 304.696289062 91.6435546875 308.884765625 104.791015625 316.255859375 c 5
 140.1796875 322.811523438 167.821289062 304.380859375 181.419921875 299.2421875 c 5
 181.419921875 311.493164062 134.30078125 307.181640625 124.215820312 351.965820312 c 5
 63.384765625 342.642578125 42.56640625 380.426757812 8.220703125 402.28515625 c 5
 58.2802734375 356.001953125 39.994140625 335.600585938 23.203125 314.6328125 c 5
EndSplineSet
Validated: 524325
EndChar

StartChar: a
Encoding: 97 97 4
Width: 376
Flags: W
LayerCount: 2
Fore
SplineSet
27.4384765625 167.924804688 m 5
 40.8388671875 115.33203125 28.6572265625 69.5986328125 28.6572265625 69.5986328125 c 4
 44.3203125 91.650390625 118.56640625 17.12109375 95.654296875 4.4296875 c 4
 84.2109375 -1.908203125 124.889648438 42.1591796875 213.813476562 35.2998046875 c 5
 172.397460938 44.4462890625 138.71484375 31.560546875 149.252929688 85.60546875 c 5
 86.794921875 67.583984375 51.2470703125 97.748046875 27.4384765625 167.924804688 c 5
178.887695312 298.982421875 m 5
 138.13671875 284.479492188 102.805664062 267.334960938 37.1103515625 275.540039062 c 5
 49.1123046875 243.534179688 25.4189453125 204.896484375 15.6572265625 175.504882812 c 5
 54.91015625 231.80078125 117.552734375 264.739257812 178.887695312 298.982421875 c 5
180.467773438 317.842773438 m 5
 215.9765625 277.764648438 269.086914062 245.533203125 296.19140625 257.247070312 c 5
 253.975585938 166.888671875 309.458007812 135.700195312 322.990234375 91.46484375 c 5
 297.15234375 115.734375 233.623046875 17.21484375 221.884765625 5.716796875 c 4
 220.301757812 4.166015625 270.775390625 95.33984375 242.59375 126.908203125 c 5
 266.956054688 155.491210938 297.841796875 156.211914062 234.06640625 242.3828125 c 5
 243.811523438 268.6796875 199.381835938 293.016601562 180.467773438 317.842773438 c 5
315.735351562 352.145507812 m 5
 317.709960938 310.255859375 315.130859375 276.953125 296.245117188 274.399414062 c 5
 323.799804688 251.765625 329.489257812 205.452148438 341.31640625 165.784179688 c 5
 342.331054688 199.607421875 327.161132812 249.454101562 349.842773438 261.823242188 c 5
 325.0625 252.057617188 324.646484375 314.73046875 315.735351562 352.145507812 c 5
EndSplineSet
Validated: 524325
EndChar

StartChar: N
Encoding: 78 78 5
Width: 504
Flags: W
LayerCount: 2
Fore
SplineSet
159 688 m 1
 189.344726562 598.887695312 233.732421875 503.74609375 205 440 c 1
 298.005859375 428.584960938 302.0078125 139.731445312 345 14 c 1
 338.05078125 202.9140625 424.735351562 255.484375 473 364 c 1
 427.310546875 368.609375 441.454101562 578.893554688 425 684 c 1
 406.650390625 581.4453125 432.920898438 473.975585938 373 376 c 1
 394.4609375 328.62109375 365 274 343 228 c 1
 313.530273438 211.424804688 300.270507812 403.791992188 281 530 c 1
 235.100585938 541.0546875 194.84375 596.9765625 159 688 c 1
49 500 m 1
 157.114999398 337.944186752 102.856939198 166.620449063 131 0 c 1
 146.324544003 113.214845056 139.236768156 262.276167675 173 346 c 1
 113.600913328 392.409050686 153.162613181 601.499847441 151 742 c 1
 126.426251587 644.929460168 121.905390844 512.962225409 49 500 c 1
EndSplineSet
Validated: 524329
EndChar

StartChar: o
Encoding: 111 111 6
Width: 429
Flags: W
LayerCount: 2
Fore
SplineSet
303 375 m 1
 323.599773746 323.524512616 361.367282258 268.97269475 368 220 c 1
 362.596733287 156.116990549 335.229552058 110.754176089 319 56 c 1
 352.05093372 116.260695347 379.795152499 218.81898992 418 238 c 1
 368.164805929 254.080488092 338.331727059 321.612316597 303 375 c 1
276 393 m 1
 174.90625 329.045898438 112.641601562 296.248046875 8 343 c 1
 97.8779296875 270.806640625 125.28668184 171.317575635 95 14 c 1
 130.907599309 61.1268876629 179.935959751 91.5635896021 295 38 c 1
 260.40090069 76.270259251 213.685546875 66.0751953125 189 144 c 1
 146 146 121.592773438 160.369140625 145 260 c 1
 139.501953125 298.880859375 196.904296875 306.377929688 276 393 c 1
EndSplineSet
Validated: 524329
EndChar

StartChar: v
Encoding: 118 118 7
Width: 412
Flags: W
HStem: 376 20G<54.1543 55.7942>
LayerCount: 2
Fore
SplineSet
251 302 m 1
 284.88671875 267.052734375 328.139648438 273.265625 313 224 c 1
 331.770507812 255.544921875 321.12109375 305.264648438 390 303 c 1
 320.559570312 306.537109375 329.3359375 388.641601562 318 419 c 1
 320.604492188 365.165039062 324.337890625 291.67578125 251 302 c 1
27 396 m 1
 81.3086860215 326.178085963 97.4519187478 261.157896373 67 202 c 1
 144.273597594 149.273257979 169.868835745 85.0192108892 201 22 c 1
 201.790489881 101.434234331 254.934796973 152.332929933 303 206 c 1
 269.248243851 183.8689185 250.527164781 142.498428008 203 138 c 1
 117.651349969 153.215457884 84.5884941702 307.139719883 27 396 c 1
EndSplineSet
Validated: 524325
EndChar

StartChar: s
Encoding: 115 115 8
Width: 362
Flags: W
HStem: 394 20G<182.538 189.429>
VStem: 37 288
LayerCount: 2
Fore
SplineSet
138.735351562 221 m 5
 155.83203125 219.631835938 172.322265625 222.94140625 181 234 c 5
 196 219 217 217 236 214 c 5
 216.583984375 210.75 179.416992188 223.38671875 182.111328125 204 c 5
 180.450195312 215.375976562 155.107421875 216.1875 138.735351562 221 c 5
129 236 m 5
 146.611328125 327.53125 78.3994140625 304.938476562 37 318 c 5
 115.239257812 318.53515625 170.075195312 347.865234375 195 414 c 5
 183.858398438 365.998046875 269.032226562 325.071289062 325 282 c 5
 273.409179688 300.016601562 205.0078125 362.828125 177 318 c 5
 111.009765625 306.762695312 148.513671875 262.202148438 129 236 c 5
43 158 m 5
 98.5629113005 117.643713464 168.972122064 85.8511154607 163 10 c 5
 206.226593602 51.3719869499 231.209086293 137.186539176 319 70 c 5
 277 118 272.352539062 168.76171875 249 218 c 5
 273.03125 94.62109375 201.216796875 118.453125 169 96 c 5
 131.894153649 90.329217647 84.7723902728 138.558194671 43 158 c 5
EndSplineSet
Validated: 524329
EndChar

StartChar: e
Encoding: 101 101 9
Width: 440
Flags: W
LayerCount: 2
Fore
SplineSet
315 336 m 1
 292 340 270.908203125 359.637695312 260 336 c 1
 239.038085938 278.853515625 269.989257812 294.096679688 284 281 c 1
 310.666992188 287.000976562 317.666992188 306.000976562 315 336 c 1
235 422 m 1
 264.237304688 356.349609375 333.881835938 350.5859375 395 354 c 1
 330.387695312 313.79296875 284.703125 262.396484375 283 185 c 1
 270.083007812 255.41796875 247.534179688 306.828125 197 303 c 1
 260.852539062 313.265625 251.56640625 367.11328125 235 422 c 1
204 430 m 1
 164.454101562 366.7734375 140.490234375 285.263671875 72 256 c 1
 116.93359375 191.33203125 99.0830078125 126.665039062 60 62 c 1
 152.399414062 96.7607421875 222.090820312 31.2333984375 300 2 c 1
 258.0625 41.298828125 154.930664062 78.705078125 158 146 c 1
 136.741210938 182.479492188 130.95703125 196.190429688 168 248 c 1
 151.866210938 326.986328125 192.102539062 369.266601562 204 430 c 1
EndSplineSet
Validated: 524329
EndChar

StartChar: l
Encoding: 108 108 10
Width: 240
Flags: W
LayerCount: 2
Fore
SplineSet
79 672 m 5
 82.185546875 497.297851562 82.0595703125 490.391601562 23 454 c 5
 92.005859375 290.501953125 56.6005859375 202.984375 28 93 c 5
 32.1005859375 145.291015625 169.884765625 -5.603515625 167 -1 c 4
 117.678710938 77.7177734375 109.0078125 103.465820312 153 92 c 5
 111 134 88.58203125 123.6328125 93 272 c 5
 82.1103515625 330.16015625 67.74609375 343.296875 103 458 c 5
 92.533203125 557.525390625 115 534 139 602 c 5
 85.533203125 587.877929688 98.6630859375 633.81640625 79 672 c 5
EndSplineSet
Validated: 524325
EndChar

StartChar: scaron
Encoding: 185 353 12
Width: 362
Flags: W
HStem: 394 20G<182.538 189.429>
VStem: 37 288
LayerCount: 2
Fore
SplineSet
104 472 m 5
 132.724105572 457.941478085 182.984050032 452.836149287 193 431 c 5
 212.950728999 466.253656457 255.084000242 485.111836594 285 513 c 5
 215.972466195 463.008131095 157.055914998 455.260915881 104 472 c 5
138.735351562 221 m 1
 155.83203125 219.631835938 172.322265625 222.94140625 181 234 c 1
 196 219 217 217 236 214 c 1
 216.583984375 210.75 179.416992188 223.38671875 182.111328125 204 c 1
 180.450195312 215.375976562 155.107421875 216.1875 138.735351562 221 c 1
129 236 m 1
 146.611328125 327.53125 78.3994140625 304.938476562 37 318 c 1
 115.239257812 318.53515625 170.075195312 347.865234375 195 414 c 1
 183.858398438 365.998046875 269.032226562 325.071289062 325 282 c 1
 273.409179688 300.016601562 205.0078125 362.828125 177 318 c 1
 111.009765625 306.762695312 148.513671875 262.202148438 129 236 c 1
43 158 m 1
 98.5629113005 117.643713464 168.972122064 85.8511154607 163 10 c 1
 206.226593602 51.3719869499 231.209086293 137.186539176 319 70 c 1
 277 118 272.352539062 168.76171875 249 218 c 1
 273.03125 94.62109375 201.216796875 118.453125 169 96 c 1
 131.894153649 90.329217647 84.7723902728 138.558194671 43 158 c 1
EndSplineSet
Validated: 524329
EndChar

StartChar: Scaron
Encoding: 169 352 14
Width: 590
Flags: W
HStem: 418.6 21G<480.457 484.057>
LayerCount: 2
Fore
SplineSet
161.9453125 709.224609375 m 5
 209.196289062 688.3125 291.874023438 680.71875 308.349609375 648.237304688 c 5
 341.168945312 700.677734375 410.478515625 728.728515625 459.690429688 770.212890625 c 5
 346.139648438 695.849609375 249.221679688 684.325195312 161.9453125 709.224609375 c 5
189.084960938 299.862304688 m 1
 217.208984375 297.827148438 244.334960938 302.75 258.610351562 319.200195312 c 1
 296 296 317.830078125 293.912109375 349.084960938 289.450195312 c 1
 317.145507812 284.615234375 256.005859375 303.413085938 260.438476562 274.575195312 c 1
 257.706054688 291.497070312 216.016601562 292.704101562 189.084960938 299.862304688 c 1
204.0703125 350.174804688 m 1
 233.041015625 486.328125 120.83203125 452.720703125 52.73046875 472.150390625 c 1
 181.43359375 472.946289062 271.638671875 516.57421875 312.639648438 614.950195312 c 1
 294.3125 543.546875 434.422851562 482.668945312 526.490234375 418.599609375 c 1
 441.623046875 445.399414062 329.102539062 538.83203125 283.030273438 472.150390625 c 1
 174.475585938 455.434570312 236.169921875 389.150390625 204.0703125 350.174804688 c 1
51.599609375 212.150390625 m 1
 143.000976562 152.120117188 258.82421875 104.828125 249 -8 c 1
 320.107421875 53.541015625 361.204101562 181.190429688 505.620117188 81.25 c 1
 436.530273438 152.650390625 428.884765625 228.158203125 390.469726562 301.400390625 c 1
 430.000976562 117.874023438 311.866210938 153.32421875 258.870117188 119.924804688 c 1
 197.831054688 111.489257812 120.315429688 183.23046875 51.599609375 212.150390625 c 1
EndSplineSet
Validated: 524329
EndChar

StartChar: Ccaron
Encoding: 200 268 15
Width: 580
Flags: W
LayerCount: 2
Fore
SplineSet
192.099609375 723.959960938 m 5
 232.45703125 702.098632812 303.073242188 694.16015625 317.14453125 660.205078125 c 5
 345.176757812 715.024414062 404.373046875 744.349609375 446.405273438 787.71484375 c 5
 349.421875 709.977539062 266.643554688 697.930664062 192.099609375 723.959960938 c 5
52.9296875 302.669921875 m 5
 113.497070312 205.33203125 234.388671875 121.530273438 185 1 c 5
 265.5859375 60.25390625 349.973632812 88.46875 449.139648438 4.1103515625 c 5
 430.455078125 90.671875 509.506835938 118.142578125 565.754882812 204.705078125 c 5
 378.681640625 100.373046875 366.245117188 140.950195312 301.615234375 147.169921875 c 5
 197.623046875 88.107421875 125.234375 209.532226562 52.9296875 302.669921875 c 5
322.384765625 613.780273438 m 5
 258.27734375 516.041015625 154.127929688 479.163085938 18.9052734375 498.709960938 c 5
 26.8916015625 439.620117188 28.81640625 391.415039062 14.6904296875 332.325195312 c 5
 98.990234375 515.815429688 351.889648438 508.040039062 519.084960938 480.049804688 c 5
 426.051757812 501.588867188 363.150390625 544.146484375 322.384765625 613.780273438 c 5
EndSplineSet
Validated: 524329
EndChar

StartChar: ccaron
Encoding: 232 269 16
Width: 412
Flags: W
LayerCount: 2
Fore
SplineSet
133 474 m 5
 161.723632812 459.94140625 211.984375 454.8359375 222 433 c 5
 241.951171875 468.25390625 284.083984375 487.112304688 314 515 c 5
 244.97265625 465.0078125 186.055664062 457.260742188 133 474 c 5
19 196 m 1
 62.1083984375 133.403320312 148.15234375 79.51171875 113 2 c 1
 170.356445312 40.10546875 230.418945312 58.25 301 4 c 1
 287.701171875 59.6669921875 343.965820312 77.3330078125 384 133 c 1
 250.85165961 65.9056215563 242 92 196 96 c 1
 121.984375 58.017578125 70.4619140625 136.104492188 19 196 c 1
230 398 m 1
 184.372070312 335.145507812 110.244140625 311.4296875 14 324 c 1
 19.6845703125 286 21.0546875 255 11 217 c 1
 71 335 251 330 370 312 c 1
 303.784179688 325.8515625 259.014648438 353.219726562 230 398 c 1
EndSplineSet
Validated: 524329
EndChar

StartChar: Cacute
Encoding: 198 262 17
Width: 580
Flags: W
LayerCount: 2
Fore
SplineSet
270.7890625 628.737304688 m 5
 331.966796875 686.85546875 405.551757812 728.092773438 478.137695312 749.286132812 c 5
 444.006835938 739.595703125 415.176757812 727.235351562 353.4296875 743.40625 c 5
 354.618164062 709.104492188 300.373046875 663.038085938 270.7890625 628.737304688 c 5
52.9296875 302.669921875 m 1
 113.497070312 205.33203125 234.388671875 121.530273438 185 1 c 1
 265.5859375 60.25390625 349.973632812 88.46875 449.139648438 4.1103515625 c 1
 430.455078125 90.671875 509.506835938 118.142578125 565.754882812 204.705078125 c 1
 378.681640625 100.373046875 366.245117188 140.950195312 301.615234375 147.169921875 c 1
 197.623046875 88.107421875 125.234375 209.532226562 52.9296875 302.669921875 c 1
322.384765625 613.780273438 m 1
 258.27734375 516.041015625 154.127929688 479.163085938 18.9052734375 498.709960938 c 1
 26.8916015625 439.620117188 28.81640625 391.415039062 14.6904296875 332.325195312 c 1
 98.990234375 515.815429688 351.889648438 508.040039062 519.084960938 480.049804688 c 1
 426.051757812 501.588867188 363.150390625 544.146484375 322.384765625 613.780273438 c 1
EndSplineSet
Validated: 524329
EndChar

StartChar: cacute
Encoding: 230 263 18
Width: 412
Flags: W
LayerCount: 2
Fore
SplineSet
184 406 m 5
 224.716121998 445.533535886 273.689888208 473.583747736 322 488 c 5
 299.284179688 481.409179688 280.095703125 473 239 484 c 5
 239.791992188 460.666992188 203.688114832 429.333333326 184 406 c 5
19 196 m 1
 62.1083984375 133.403320312 148.15234375 79.51171875 113 2 c 1
 170.356445312 40.10546875 230.418945312 58.25 301 4 c 1
 287.701171875 59.6669921875 343.965820312 77.3330078125 384 133 c 1
 250.85165961 65.9056215563 242 92 196 96 c 1
 121.984375 58.017578125 70.4619140625 136.104492188 19 196 c 1
230 398 m 1
 184.372070312 335.145507812 110.244140625 311.4296875 14 324 c 1
 19.6845703125 286 21.0546875 255 11 217 c 1
 71 335 251 330 370 312 c 1
 303.784179688 325.8515625 259.014648438 353.219726562 230 398 c 1
EndSplineSet
Validated: 524329
EndChar

StartChar: Zcaron
Encoding: 174 381 19
Width: 605
Flags: W
LayerCount: 2
Fore
SplineSet
130.440429688 676.280273438 m 1
 178.408203125 652.942382812 262.34375 644.467773438 279.0703125 608.219726562 c 1
 312.388671875 666.741210938 382.75 698.046875 432.709960938 744.33984375 c 1
 317.434570312 661.352539062 219.04296875 648.493164062 130.440429688 676.280273438 c 1
100.330078125 261.33984375 m 1
 90.9267578125 253.759765625 499.8203125 423.19140625 484.4296875 415.719726562 c 0
 340.809570312 346 334.102539062 295.60546875 385.900390625 289.559570312 c 1
 281.24609375 331.09765625 204.983398438 287.426757812 100.330078125 261.33984375 c 1
25.5703125 238.419921875 m 1
 113.705078125 176.791015625 249.458984375 114.548828125 241 11 c 1
 306.665039062 183.740234375 463.604492188 75.3818359375 575 107.280273438 c 1
 488.31640625 139.995117188 396.533203125 152.435546875 317.8203125 216.83984375 c 1
 205.077148438 131.088867188 121.317382812 209.478515625 25.5703125 238.419921875 c 1
22.2197265625 482.120117188 m 1
 127.567382812 491.243164062 221.670898438 514.321289062 282.740234375 578.400390625 c 1
 307.049804688 476.930664062 470.577148438 471.379882812 571.650390625 448.919921875 c 1
 472.884765625 422.795898438 387.1328125 514.467773438 296.099609375 445.599609375 c 1
 257.23046875 507.25 114.603515625 470.974609375 22.2197265625 482.120117188 c 1
EndSplineSet
Validated: 524325
EndChar

StartChar: zcaron
Encoding: 190 382 20
Width: 397
Flags: W
LayerCount: 2
Fore
SplineSet
133 449 m 5
 161.723632812 434.94140625 211.984375 429.8359375 222 408 c 5
 241.951171875 443.25390625 284.083984375 462.112304688 314 490 c 5
 244.97265625 440.0078125 186.055664062 432.260742188 133 449 c 5
92 155 m 1
 86.369140625 150.43359375 331.215820312 252.500976562 322 248 c 0
 236 206 231.983398438 175.641601562 263 172 c 1
 200.333007812 197.022460938 154.666992188 170.71484375 92 155 c 1
20 140 m 1
 72.775390625 102.874023438 154.065429688 65.37890625 149 3 c 1
 188.3203125 107.060546875 282.295898438 41.7841796875 349 61 c 1
 297.09375 80.7080078125 242.133789062 88.2021484375 195 127 c 1
 127.489257812 75.3427734375 77.333984375 122.565429688 20 140 c 1
51 299 m 1
 114.08203125 304.49609375 170.431640625 318.3984375 207 357 c 1
 221.556640625 295.874023438 319.477539062 292.530273438 380 279 c 1
 320.859375 263.262695312 269.510742188 318.486328125 215 277 c 1
 191.724609375 314.138671875 106.319335938 292.286132812 51 299 c 1
EndSplineSet
Validated: 524325
EndChar

StartChar: Dcroat
Encoding: 208 272 21
Width: 596
Flags: W
VStem: 184 45<132 193.133> 470 85<235.887 310.524>
LayerCount: 2
Fore
SplineSet
8 414 m 1
 47.6005859375 409.771484375 212.15234375 403.958007812 210 438 c 1
 246 396.66796875 337.333007812 372.001953125 384 368 c 1
 354.799804688 364.196289062 126.045898438 411.184570312 108 348 c 1
 96.5068359375 383.979492188 51.4521484375 404.036132812 8 414 c 1
238 53 m 1
 295.311564575 44.1539914144 364.226351381 69.3132343048 405 12 c 1
 426.097646408 72.7951986584 452.542887789 129.973307357 528 154 c 1
 483 152 470.029291965 134.935877569 555 480 c 1
 527.202306251 419.567964955 506.681830842 330.622894219 470 305 c 1
 463.765119546 235.88657869 476.803171742 164.01523899 400 105 c 1
 365.454625856 60.9792614133 293.556439156 68.1982461349 238 53 c 1
209 702 m 1
 260.627240486 693.880723758 311.319046535 687.031457769 329 725 c 1
 405.874134465 602.492597313 495.164110384 558.855064287 576 543 c 1
 546.0703125 535.760742188 528.069335938 496.120117188 520 465 c 1
 531.043945312 533.35546875 456.149414062 551.185546875 404 599 c 1
 360.258789062 642.83984375 281.079085224 677.369086566 209 702 c 1
194 721 m 1
 166.370117188 596.694335938 181.53125 333.509765625 122 248 c 5
 204.264648438 170.129882812 158.807617188 118.778320312 184 2 c 1
 191.94921875 63.8203125 207.03515625 131.84375 229 132 c 1
 193.91796875 278.71484375 180.682617188 435.443359375 194 721 c 1
EndSplineSet
Validated: 524325
EndChar

StartChar: dcroat
Encoding: 240 273 22
Width: 468
Flags: W
LayerCount: 2
Fore
SplineSet
177 606 m 5
 216.600585938 601.771484375 343.15234375 593.958007812 341 628 c 5
 377 586.66796875 418.333007812 564.001953125 465 560 c 5
 427.853515625 550.076171875 281.80859375 603.772460938 263 540 c 5
 251.506835938 575.979492188 220.452148438 596.036132812 177 606 c 5
321 724 m 1
 301.639648438 625.426757812 318.3515625 522 265 428 c 1
 329.075195312 286.05078125 312.576171875 173.985351562 339 46 c 1
 339.21875 133.333007812 325.901367188 220.666992188 355 308 c 1
 337.62890625 423.854492188 313.020507812 512.366210938 321 724 c 1
27.4384765625 167.924804688 m 1
 40.8388671875 115.33203125 28.6572265625 69.5986328125 28.6572265625 69.5986328125 c 0
 44.3203125 91.650390625 118.56640625 17.12109375 95.654296875 4.4296875 c 0
 84.2109375 -1.908203125 124.889648438 42.1591796875 213.813476562 35.2998046875 c 1
 172.397460938 44.4462890625 138.71484375 31.560546875 149.252929688 85.60546875 c 1
 86.794921875 67.583984375 51.2470703125 97.748046875 27.4384765625 167.924804688 c 1
178.887695312 298.982421875 m 1
 138.13671875 284.479492188 102.805664062 267.334960938 37.1103515625 275.540039062 c 1
 49.1123046875 243.534179688 25.4189453125 204.896484375 15.6572265625 175.504882812 c 1
 54.91015625 231.80078125 117.552734375 264.739257812 178.887695312 298.982421875 c 1
180.467773438 317.842773438 m 1
 215.9765625 277.764648438 269.086914062 245.533203125 296.19140625 257.247070312 c 1
 253.975585938 166.888671875 309.458007812 135.700195312 322.990234375 91.46484375 c 1
 297.15234375 115.734375 233.623046875 17.21484375 221.884765625 5.716796875 c 0
 220.301757812 4.166015625 270.775390625 95.33984375 242.59375 126.908203125 c 1
 266.956054688 155.491210938 297.841796875 156.211914062 234.06640625 242.3828125 c 1
 243.811523438 268.6796875 199.381835938 293.016601562 180.467773438 317.842773438 c 1
EndSplineSet
Validated: 524325
EndChar
